<?xml version="1.0" encoding="UTF-8" standalone="no"?>
<svg
   xmlns:dc="http://purl.org/dc/elements/1.1/"
   xmlns:cc="http://creativecommons.org/ns#"
   xmlns:rdf="http://www.w3.org/1999/02/22-rdf-syntax-ns#"
   xmlns:svg="http://www.w3.org/2000/svg"
   xmlns="http://www.w3.org/2000/svg"
   width="186.54428mm"
   height="104.19685mm"
   viewBox="0 0 186.54428 104.19685"
   version="1.1"
   id="svg53291">
<path d="m 83.781776,18.139312 45.458004,-0.015 c 0,0 0.521,-0.573 0.638,-0.779 0.33,-1.376 2.65831,-11.9210002 2.75731,-13.7400002 -0.011,-2.94200004 -2.78631,-3.26700004 -3.65331,-3.25200004 -0.177,0.003 -128.62900391,0 -128.62900391,0 l 0.541,10.28900024 c 0,0 0,0.764 1.05800001,0.926 0.335,0.051 4.572,-0.015 4.572,-0.015 l 1.778,-0.867 18.6119999,0.047 c 0,0 0.891,0.84 1.115,0.864 0.264,0.03 4.704,0.045 5.042,0.015 0.353,-0.031 1.308,-0.97 1.308,-0.97 l 17.874,-0.015 c 0,0 0.847,0.941 1.249,1 0.262,0.038 5.145,0.015 5.145,0.015 0,0 0.955,-0.794 1.117,-0.956 0.588,0 17.8,-0.015 17.8,-0.015 0,0 0.559,1.044 1.647,1.132 0.029,0.002 4.586,0 4.586,0 z" id="1274StoolCap" style="fill:none;stroke:#231f20;stroke-width:0.705556;stroke-linecap:round;stroke-linejoin:round;stroke-miterlimit:4;stroke-dasharray:none;stroke-opacity:1"/>
</svg>
