<?xml version="1.0" encoding="UTF-8" standalone="no"?>
<svg
   xmlns:dc="http://purl.org/dc/elements/1.1/"
   xmlns:cc="http://creativecommons.org/ns#"
   xmlns:rdf="http://www.w3.org/1999/02/22-rdf-syntax-ns#"
   xmlns:svg="http://www.w3.org/2000/svg"
   xmlns="http://www.w3.org/2000/svg"
   width="186.54428mm"
   height="104.19685mm"
   viewBox="0 0 186.54428 104.19685"
   version="1.1"
   id="svg53291">
<path d="m 30.045852,1.4997925 c 0,0 91.453998,-1.14100004 92.779998,-1.14700004 1.052,-0.005 1.059,1.05900004 0.97,1.14700004 -0.088,0.088 -4.85,18.6089995 -4.85,18.6089995 l -7.938,-2.117 c -0.096,0.213 -1.676,6.879 -2.028,7.056 -0.353,0.176 -83.519998,0.97 -83.519998,0.97 l 0.088,-5.6 c 0,0 -7.232,-0.397 -7.409,-0.044 -0.176,0.352 -1.146,5.208 -1.146,5.208 0,0 -0.187,0.476 -0.353,0.568 -0.397,0.221 -6.408,0.221 -6.408,0.221 0,0 -0.03,-1.588 -1.4409998,-1.588 -1.411,0 -1.529,1.535 -1.529,1.535 0,0 -5.468,0.141 -5.909,-0.035 -0.44100004,-0.177 -1.00800004,-0.647 -1.00000004,-1.933 0.003,-0.449 2.26400004,-16.2349995 2.35200004,-17.1169995 0.089,-0.882 0.882,-1.5 1.323,-1.5 0.441,0 24.7829998,0.088 24.7829998,0.088 z" id="559Sill" style="fill:none;stroke:#231f20;stroke-width:0.705556;stroke-linecap:butt;stroke-linejoin:miter;stroke-miterlimit:4;stroke-dasharray:none;stroke-opacity:1"/>
</svg>
