<?xml version="1.0" encoding="UTF-8" standalone="no"?>
<svg
   xmlns:dc="http://purl.org/dc/elements/1.1/"
   xmlns:cc="http://creativecommons.org/ns#"
   xmlns:rdf="http://www.w3.org/1999/02/22-rdf-syntax-ns#"
   xmlns:svg="http://www.w3.org/2000/svg"
   xmlns="http://www.w3.org/2000/svg"
   width="186.54428mm"
   height="104.19685mm"
   viewBox="0 0 186.54428 104.19685"
   version="1.1"
   id="svg53291">
<path d="M 0.367,0.353 0.014,0.352 0,9.047 C 0,9.141 0.036,9.23 0.103,9.297 0.169,9.363 0.258,9.4 0.352,9.4 h 40.391 c 0.093,0 0.184,-0.038 0.25,-0.103 0.065,-0.066 0.103,-0.157 0.103,-0.25 V 7.041 C 41.096,6.943 41.056,6.85 40.984,6.783 40.912,6.716 40.817,6.682 40.719,6.689 L 40.723,6.742 40.719,6.689 H 40.718 L 40.722,6.742 40.718,6.689 C 40.714,6.689 40.673,6.691 40.6,6.691 40.327,6.692 39.619,6.656 38.817,6.352 38.014,6.046 37.119,5.483 36.424,4.408 L 36.414,4.393 C 36.072,3.923 35.621,3.203 34.832,2.565 34.043,1.926 32.912,1.377 31.249,1.206 l -0.037,0.351 h 0.353 V 0.353 C 31.565,0.26 31.527,0.169 31.462,0.103 31.396,0.038 31.305,0 31.212,0 H 0.366 C 0.171,0 0.014,0.157 0.013,0.352 l 0.353,0.001 v 0.352 h 30.493 v 0.852 c 0,0.181 0.137,0.332 0.316,0.35 1.547,0.163 2.524,0.652 3.214,1.207 0.69,0.558 1.092,1.192 1.453,1.692 L 36.128,4.6 35.831,4.791 c 0.786,1.218 1.825,1.877 2.737,2.221 0.912,0.344 1.7,0.384 2.032,0.385 0.101,0 0.159,-0.004 0.167,-0.004 L 40.742,7.041 H 40.39 V 8.695 H 0.705 L 0.719,0.354 0.366,0.353 v 0.353 z" id="8090Stop" style="fill:#231f20;fill-opacity:1;fill-rule:nonzero;stroke:none;stroke-width:0.352778"/>
</svg>
