<?xml version="1.0" encoding="UTF-8" standalone="no"?>
<svg
   xmlns:dc="http://purl.org/dc/elements/1.1/"
   xmlns:cc="http://creativecommons.org/ns#"
   xmlns:rdf="http://www.w3.org/1999/02/22-rdf-syntax-ns#"
   xmlns:svg="http://www.w3.org/2000/svg"
   xmlns="http://www.w3.org/2000/svg"
   width="186.54428mm"
   height="104.19685mm"
   viewBox="0 0 186.54428 104.19685"
   version="1.1"
   id="svg53291">
<path d="m 0.35277795,17.236988 0.017,-16.87699989 c 0,0 7.31200005,-0.007 7.34100005,-0.007 1.143,-0.013 1.676,0.5 2.528,2.02899999 0.676,1.176 1.145,2.001 1.176,1.97 0.236,0.029 1.372,0.027 1.382,0 0.47,-1.294 4.47,-4.20699999 7.938,-0.912 2.351,2.235 2.645,5.527 7.084,6.144 2.823,0.089 3.146,-1.323 5.586,-1.411 2.558,0.059 3.881,1.617 4.028,2.5459999 0.029,1.205 -0.015,6.473 -0.015,6.473 z" id="8470Band" style="fill:none;stroke:#231f20;stroke-width:0.705556;stroke-linecap:round;stroke-linejoin:round;stroke-miterlimit:4;stroke-dasharray:none;stroke-opacity:1"/>
</svg>
