<?xml version="1.0" encoding="UTF-8" standalone="no"?>
<svg
   xmlns:dc="http://purl.org/dc/elements/1.1/"
   xmlns:cc="http://creativecommons.org/ns#"
   xmlns:rdf="http://www.w3.org/1999/02/22-rdf-syntax-ns#"
   xmlns:svg="http://www.w3.org/2000/svg"
   xmlns="http://www.w3.org/2000/svg"
   width="186.54428mm"
   height="104.19685mm"
   viewBox="0 0 186.54428 104.19685"
   version="1.1"
   id="svg53291">
<path d="m 0.35277785,17.145698 15.85600015,0.005 1.611,-1.61 h 25.9 l 1.632,1.633 h 16.484 v -5.614 l -3.623,-0.582 c 0,0 -1.163,-3.1309999 -4.16,-4.3839999 -2.997,-1.252 -4.717,-0.22 -6.283,0.317 0,0 -0.418,0.226 -0.777,0 -0.35,-0.22 -1.283,-1.633 -2.065,-1.569 -1.527,0.124 -4.429,1.431 -7.605,1.431 -5.95,0 -8.634,-1.699 -18.295,-5.591 -11.2420001,-3.629 -13.5470001,5.67 -14.7390001,6.421 -0.311,-0.052 -1.399,-0.052 -1.399,-0.052 0,0 -0.362,0.7 -1.036,1.451 0,0 -0.569,0.699 -1.47500005,1.3489999 z" id="8630ChairRail" style="fill:none;stroke:#231f20;stroke-width:0.705556;stroke-linecap:butt;stroke-linejoin:round;stroke-miterlimit:4;stroke-dasharray:none;stroke-opacity:1"/>
</svg>
