<?xml version="1.0" encoding="UTF-8" standalone="no"?>
<svg
   xmlns:dc="http://purl.org/dc/elements/1.1/"
   xmlns:cc="http://creativecommons.org/ns#"
   xmlns:rdf="http://www.w3.org/1999/02/22-rdf-syntax-ns#"
   xmlns:svg="http://www.w3.org/2000/svg"
   xmlns="http://www.w3.org/2000/svg"
   width="186.54428mm"
   height="104.19685mm"
   viewBox="0 0 186.54428 104.19685"
   version="1.1"
   id="svg53291">
<path d="m 0.38214752,17.314052 c 0,0 -0.015,-13.4649999 -0.029,-14.2289999 -0.028,-1.494 1.53999998,-2.71200002 3.15199998,-2.64500002 0.064,0.002 10.1490005,-0.147 12.1180005,-0.059 0.664,0.029 2.251,1.08700002 2.604,2.67500002 0.941,-0.236 3.449,-1.085 5.527,-1.029 2.175,0.058 2.998,-0.353 9.378,2.557 1.675,0.853 6.996,2.911 14.64,1.676 0.029,0.794 0.059,1.411 0.059,1.411 0,0 11.759,-0.117 12.229,-0.117 0.47,0 2.323,0.294 2.911,2.5279999 0.059,2.352 0.029,6.791 0.029,6.791 l -17.815,0.129 -1.529,-1.494 -24.106,0.16 -1.529,1.528 z" id="8710Casing" style="fill:none;stroke:#231f20;stroke-width:0.705556;stroke-linecap:round;stroke-linejoin:round;stroke-miterlimit:4;stroke-dasharray:none;stroke-opacity:1"/>
</svg>
