<?xml version="1.0" encoding="UTF-8" standalone="no"?>
<svg
   xmlns:dc="http://purl.org/dc/elements/1.1/"
   xmlns:cc="http://creativecommons.org/ns#"
   xmlns:rdf="http://www.w3.org/1999/02/22-rdf-syntax-ns#"
   xmlns:svg="http://www.w3.org/2000/svg"
   xmlns="http://www.w3.org/2000/svg"
   width="186.54428mm"
   height="104.19685mm"
   viewBox="0 0 186.54428 104.19685"
   version="1.1"
   id="svg53291">
<path d="m 0.3967779,17.065778 -0.044,-16.71300044 c 0,0 11.1130001,0.133 11.3770001,0.221 0.265,0.088 0.75,1.49900004 0.75,1.49900004 0,0 3.616,-2.02800004 7.893,-0.176 4.278,1.852 4.889,3.133 9.019,2.822 2.05,-0.155 2.469,-0.728 3.836,-0.728 2.375,0 3.197,2.404 3.197,2.404 0,0 16.947,0.427 17.837,0.485 0.684,0.044 1.456,2.271 1.566,2.359 0.573,-0.529 1.091,-2.033 3.66,-2.227 2.337,-0.176 3.842,2.327 3.968,3.0870004 0.089,0.529 0.089,6.35 0.089,6.35 l -17.639,0.188 -1.656,-1.567 -25.817,0.144 -1.764,1.764 z" id="8725Casing" style="fill:none;stroke:#231f20;stroke-width:0.705556;stroke-linecap:round;stroke-linejoin:round;stroke-miterlimit:4;stroke-dasharray:none;stroke-opacity:1"/>
</svg>
