<?xml version="1.0" encoding="UTF-8" standalone="no"?>
<svg
   xmlns:dc="http://purl.org/dc/elements/1.1/"
   xmlns:cc="http://creativecommons.org/ns#"
   xmlns:rdf="http://www.w3.org/1999/02/22-rdf-syntax-ns#"
   xmlns:svg="http://www.w3.org/2000/svg"
   xmlns="http://www.w3.org/2000/svg"
   width="186.54428mm"
   height="104.19685mm"
   viewBox="0 0 186.54428 104.19685"
   version="1.1"
   id="svg53291">
<path d="m 88.911778,14.276887 v 2.822 l -22.842,0.132 -1.852,-1.763 -40.569,0.176 -1.548,1.599 -21.74800001,0.012 V 0.39788722 l 9.71400001,-0.044 c 0,0 2.072,-0.145 3.88,2.06099998 0.662,0.22 3.126,-3.642 16.007,0.485 11.289,3.616 15.699,4.41 23.945,3.043 2.426,-0.53 3.472,2.104 3.472,2.104 0,0 20.537,-0.12 21.066,-0.12 0,0 0.774,-0.088 1.171,0.705 0.397,0.794 0.573,1.6319998 0.529,1.6319998 -0.044,0 1.676,0.353 3.484,1.588 2.054,1.403 4.189,2.293 5.291,2.425 z" id="8753ACasing" style="fill:none;stroke:#231f20;stroke-width:0.705556;stroke-linecap:round;stroke-linejoin:round;stroke-miterlimit:4;stroke-dasharray:none;stroke-opacity:1"/>
</svg>
