<?xml version="1.0" encoding="UTF-8" standalone="no"?>
<svg
   xmlns:dc="http://purl.org/dc/elements/1.1/"
   xmlns:cc="http://creativecommons.org/ns#"
   xmlns:rdf="http://www.w3.org/1999/02/22-rdf-syntax-ns#"
   xmlns:svg="http://www.w3.org/2000/svg"
   xmlns="http://www.w3.org/2000/svg"
   width="186.54428mm"
   height="104.19685mm"
   viewBox="0 0 186.54428 104.19685"
   version="1.1"
   id="svg53291">
<path d="m 0.35277792,17.050778 0.035,-16.69100001 21.70300008,-0.007 c 0,0 0.999,0.118 1.058,1.23500001 0.706,0.058 1.117,0.088 1.558,0.176 0.394,0.079 1.238,0.135 2.528,0.941 1.411,0.882 1.441,1.676 5.175,2.675 1.293,0.441 2.087,1.147 3.057,2.646 1.088,-0.559 10.789,-3.528 18.227,-3.41 8.383,0.132 15.345,1.911 18.873,3.38 1.999,-2.469 2.176,-2.381 5.263,-3.175 1.763,-0.676 3.02,-2.508 4.762,-2.822 1.793,-0.323 2.352,-0.353 2.352,-0.353 0,0 0.147,-1.02800001 0.882,-1.14600001 0.931,-0.149 21.931002,-0.059 21.931002,-0.059 V 17.109778 H 82.020778 l -1.604,-1.57 -52.924,-0.018 -1.522,1.588 z" id="B100Casing" style="fill:none;stroke:#231f20;stroke-width:0.705556;stroke-linecap:round;stroke-linejoin:round;stroke-miterlimit:4;stroke-dasharray:none;stroke-opacity:1"/>
</svg>
