<?xml version="1.0" encoding="UTF-8" standalone="no"?>
<svg
   xmlns:dc="http://purl.org/dc/elements/1.1/"
   xmlns:cc="http://creativecommons.org/ns#"
   xmlns:rdf="http://www.w3.org/1999/02/22-rdf-syntax-ns#"
   xmlns:svg="http://www.w3.org/2000/svg"
   xmlns="http://www.w3.org/2000/svg"
   width="186.54428mm"
   height="104.19685mm"
   viewBox="0 0 186.54428 104.19685"
   version="1.1"
   id="svg53291">
<path d="m 0.39877791,27.591215 -0.046,-20.7920005 c 0,0 3.44299999,0.183 4.54399999,-2.8 h 1.698 c 0,0 0.138,-2.984 2.112,-3.44299996 1.6980001,-0.137 4.7740001,0 4.7740001,0 l 2.753,3.71799996 c 0,0 5.538,-7.298 11.138,0.138 0.643,0.046 1.026,0.046 1.026,0.046 0,0 0.321,2.065 1.79,3.304 2.157,1.194 4.084,0.505 5.278,-2.524 0.688,-0.046 1.79,0 1.79,0 0,0 0.138,-4.177 5.233,-4.86499996 2.662,-0.046 4.681,0 4.681,0 0,0 4.82,0.596 5.233,4.86499996 0.138,0.021 0.78,0.046 2.019,0 0,0 0.781,3.213 3.764,3.121 2.995,-0.092 3.411,-3.672 3.504,-3.764 0.092,-0.092 1.269,0 1.269,0 0,0 1.515,-3.167 4.498,-3.62599996 1.89,-0.164 4.085,0.36799996 6.105,3.62599996 1.01,-1.514 2.57,-3.58 2.57,-3.58 l 4.59,-0.046 c 0,0 1.974,0.505 2.387,3.626 0.046,-0.045 1.469,0 1.469,0 0,0 0.872,2.708 4.544,2.892 0.045,1.331 0,20.1040005 0,20.1040005 z" id="B150ARosette" style="fill:none;stroke:#231f20;stroke-width:0.705556;stroke-linecap:round;stroke-linejoin:round;stroke-miterlimit:4;stroke-dasharray:none;stroke-opacity:1"/>
</svg>
