<?xml version="1.0" encoding="UTF-8" standalone="no"?>
<svg
   xmlns:dc="http://purl.org/dc/elements/1.1/"
   xmlns:cc="http://creativecommons.org/ns#"
   xmlns:rdf="http://www.w3.org/1999/02/22-rdf-syntax-ns#"
   xmlns:svg="http://www.w3.org/2000/svg"
   xmlns="http://www.w3.org/2000/svg"
   width="186.54428mm"
   height="104.19685mm"
   viewBox="0 0 186.54428 104.19685"
   version="1.1"
   id="svg53291">
<path d="M 0.35277799,26.957505 V 5.7225052 c 0,0 2.90500001,0.002 3.64800001,-2.227 0.434,0 1.5,-0.176 1.5,-0.176 0,0 0.22,-2.82299996 2.073,-2.82299996 1.609,0 3.66,0.044 3.66,0.044 l 2.249,3.04299996 c 0,0 4.542,-5.997 9.216,0.177 0.496,0.062 0.838,0.044 0.838,0.044 0,0 0.22,2.822 2.646,3.086 2.499,0.273 3.175,-2.513 3.175,-2.513 l 1.499,-0.088 c 0,0 0.834,-3.38099996 3.572,-3.74899996 2.954,-0.396 5.203,-0.044 5.203,-0.044 0,0 3.572,0.70599996 3.749,3.86399996 0.557,0 1.631,0.061 1.631,0.061 0,0 1.103,2.69 2.867,2.646 2.296,-0.057 3.069,-2.123 3.13,-3.175 0.133,0 1.178,-0.028 1.178,-0.028 0,0 1.513,-3.09099996 4.158,-3.01499996 3.043,0.088 4.586,2.99899996 4.586,2.99899996 l 2.161,-2.95499996 h 3.837 c 0,0 1.852,0.88199996 1.774,2.97099996 0.434,-0.062 1.362,0.014 1.362,0.014 0,0 0.776,2.175 3.729,2.401 0.124,0.99 -0.014,20.7399998 -0.014,20.7399998 z" id="B150BRosette" style="fill:none;stroke:#231f20;stroke-width:0.705556;stroke-linecap:round;stroke-linejoin:round;stroke-miterlimit:4;stroke-dasharray:none;stroke-opacity:1"/>
</svg>
