<?xml version="1.0" encoding="UTF-8" standalone="no"?>
<svg
   xmlns:dc="http://purl.org/dc/elements/1.1/"
   xmlns:cc="http://creativecommons.org/ns#"
   xmlns:rdf="http://www.w3.org/1999/02/22-rdf-syntax-ns#"
   xmlns:svg="http://www.w3.org/2000/svg"
   xmlns="http://www.w3.org/2000/svg"
   width="186.54428mm"
   height="104.19685mm"
   viewBox="0 0 186.54428 104.19685"
   version="1.1"
   id="svg53291">
<path d="m 0.35277791,27.090778 0.044,-20.035 c 0,0 3.13099999,-1.146 3.96899999,-3.704 1.117,0 1.867,0.044 1.867,0.044 l 1.176,-3.04300001 H 17.947778 l 3.572,3.52800001 c 0,0 5.865,-7.232 12.7,-0.044 0.397,0 1.72,0.088 1.72,0.088 0,0 -0.353,1.367 0.661,2.911 0.926,1.411 5.248,3.307 8.379,-0.089 h 3.175 c 0,0 -0.088,-5.335 5.777,-6.12900001 4.292,0.118 10.916,-0.057 11.533,-0.044 2.161,0.044 5.664,1.41100001 6.149,6.26200001 0.882,0.059 3.484,0 3.484,0 0,0 0.774,1.256 2.514,1.675 2.293,0.554 5.865,-0.088 5.909,-4.63 0.882,-0.044 1.734,-0.073 1.734,-0.073 0,0 5.792,-7.115 12.73,0.117 1.646,-1.646 2.969002,-3.09900001 2.969002,-3.09900001 l 10.583,-0.017 1.252,3.15800001 1.747,-0.042 c 0,0 0.691,2.514 3.981,3.763 0,1.764 -0.042,19.385 -0.042,19.385 z" id="B150Rosette" style="fill:none;stroke:#231f20;stroke-width:0.705556;stroke-linecap:round;stroke-linejoin:round;stroke-miterlimit:4;stroke-dasharray:none;stroke-opacity:1"/>
</svg>
