<?xml version="1.0" encoding="UTF-8" standalone="no"?>
<svg
   xmlns:dc="http://purl.org/dc/elements/1.1/"
   xmlns:cc="http://creativecommons.org/ns#"
   xmlns:rdf="http://www.w3.org/1999/02/22-rdf-syntax-ns#"
   xmlns:svg="http://www.w3.org/2000/svg"
   xmlns="http://www.w3.org/2000/svg"
   width="186.54428mm"
   height="104.19685mm"
   viewBox="0 0 186.54428 104.19685"
   version="1.1"
   id="svg53291">
<path d="M 0.35277799,27.409778 H 90.539778 V 7.5427779 c 0,0 -1.891,-0.126 -3.216,-1.009 -1.324,-0.883 -1.261,-1.892 -1.261,-1.892 h -1.766 c 0,0 -0.238,-3.65799997 -2.46,-3.65799997 h -7.631 c 0,0 -2.775,4.54099997 -3.091,4.41499997 -0.315,-0.126 -0.296,-4.297 -4.219,-4.175 -4.551,0.141 -3.429,4.174 -4.63,4.174 -1.198,0 0.31,-4.152 -4.55,-4.206 -4.35,-0.048 -3.599,4.12 -4.298,4.096 -1.365,-0.047 1.585,-4.32399997 -8.239,-4.073 -9.204,-0.158 -5.839,4.055 -7.679,4.247 -0.82,0 0.586,-4.263 -4.648,-4.166 -4.38,0.081 -2.758,4.136 -4.307,4.166 -1.011,0.019 -0.064,-4.415 -4.541,-4.352 -3.784,0.053 -4.226,4.226 -4.226,4.226 l -3.532,-4.91999997 -7.189,-0.063 c 0,0 -2.271,0.81999997 -2.271,3.72099997 h -1.766 c 0,0 -0.567,1.577 -1.829,2.145 -1.261,0.567 -2.83800001,0.504 -2.83800001,0.504 z" id="B160ARosette" style="fill:none;stroke:#231f20;stroke-width:0.705556;stroke-linecap:round;stroke-linejoin:round;stroke-miterlimit:4;stroke-dasharray:none;stroke-opacity:1"/>
</svg>
