<?xml version="1.0" encoding="UTF-8" standalone="no"?>
<svg
   xmlns:dc="http://purl.org/dc/elements/1.1/"
   xmlns:cc="http://creativecommons.org/ns#"
   xmlns:rdf="http://www.w3.org/1999/02/22-rdf-syntax-ns#"
   xmlns:svg="http://www.w3.org/2000/svg"
   xmlns="http://www.w3.org/2000/svg"
   width="186.54428mm"
   height="104.19685mm"
   viewBox="0 0 186.54428 104.19685"
   version="1.1"
   id="svg53291">
<path d="M 0.35277785,28.592778 H 114.98778 V 9.1067776 c 0,0 -1.978,-0.561 -2.588,-1.294 -0.761,-0.914 -1.523,-2.36 -1.523,-2.36 h -1.903 l -2.664,-5.09999998 -4.491,0.077 -2.892002,7.38299998 c 0,0 -0.837,-7.30799998 -8.526,-7.30799998 -7.231,0.53299998 -7.535,8.44899998 -7.535,8.44899998 0,0 -0.304,-7.003 -8.145,-7.383 -7.536,0.381 -7.764,8.6020004 -7.764,8.6020004 0,0 -0.228,-9.21100038 -9.819,-9.21100038 -8.754,0 -9.287,9.59100038 -9.287,9.59100038 0,0 -0.147,-8.1190004 -7.916,-8.3730004 -7.003,-0.228 -7.992,7.46 -7.992,7.46 0,0 0.228,-7.536 -7.993,-7.917 -7.155,0.229 -7.916,7.841 -7.916,7.841 l -4.263,-8.297 H 7.2797778 l -1.294,4.719 h -1.903 c 0,0 -0.38,1.751 -1.446,2.588 -1.065,0.837 -2.20699995,0.99 -2.20699995,0.99 z" id="B160Rosette" style="fill:none;stroke:#231f20;stroke-width:0.705556;stroke-linecap:butt;stroke-linejoin:round;stroke-miterlimit:4;stroke-dasharray:none;stroke-opacity:1"/>
</svg>
