<?xml version="1.0" encoding="UTF-8" standalone="no"?>
<svg
   xmlns:dc="http://purl.org/dc/elements/1.1/"
   xmlns:cc="http://creativecommons.org/ns#"
   xmlns:rdf="http://www.w3.org/1999/02/22-rdf-syntax-ns#"
   xmlns:svg="http://www.w3.org/2000/svg"
   xmlns="http://www.w3.org/2000/svg"
   width="186.54428mm"
   height="104.19685mm"
   viewBox="0 0 186.54428 104.19685"
   version="1.1"
   id="svg53291">
<path d="m 0.35277775,26.855778 0.177,-26.50300001 H 7.0997778 l 1.411,3.83700001 c 0,0 2.1160002,-3.091 4.2780002,-3.48400001 2.91,-0.529 4.409,0.221 6.658,5.46800001 1.687,3.935 2.117,4.322 5.248,5.468 0.265,0.097 0.529,1.896 0.529,1.896 h 1.235 c 0,0 1.19,-2.557 1.587,-2.998 1.279,-1.808 4.101,-2.161 5.998,0.485 0.749,1.058 2.381,4.145 2.381,4.145 l 2.954,1.058 0.441,0.838 34.617,-0.132 0.573,-2.249 h 2.481 c 0.385,-3.351 2.81,-5.821 5.809,-5.682 2.488,-0.035 4.921,1.647 5.348,5.141 -0.177,9.172 -0.144,12.712 -0.144,12.712 l -20.726,-0.032 -1.588,-1.624 -43.391,-0.052 -1.852,1.632 z" id="B200Casing" style="fill:none;stroke:#231f20;stroke-width:0.705556;stroke-linecap:round;stroke-linejoin:round;stroke-miterlimit:4;stroke-dasharray:none;stroke-opacity:1"/>
</svg>
