<?xml version="1.0" encoding="UTF-8" standalone="no"?>
<svg
   xmlns:dc="http://purl.org/dc/elements/1.1/"
   xmlns:cc="http://creativecommons.org/ns#"
   xmlns:rdf="http://www.w3.org/1999/02/22-rdf-syntax-ns#"
   xmlns:svg="http://www.w3.org/2000/svg"
   xmlns="http://www.w3.org/2000/svg"
   width="186.54428mm"
   height="104.19685mm"
   viewBox="0 0 186.54428 104.19685"
   version="1.1"
   id="svg53291">
<path d="m 0.35277785,18.610473 0.059,-15.0429998 c 0,0 0.084,-2.96300002 3.26300005,-3.17500002 2.646,-0.177 8.4230001,0.309 8.4230001,0.309 0,0 1.146,-0.045 2.014,1.52800002 0.882,-0.47 3.593,-2.71200002 7.026,-0.029 3.836,2.998 2.719,2.998 8.026,5.424 0.749,-3.925 6.085,-4.234 6.923,0.044 3.41,-0.177 37.585,-1.852 37.585,-1.852 0,0 2.587,-0.117 3.822,3.645 1.352,0.059 1.764,0.059 1.764,0.059 0,0 0.441,-4.454 5.027,-4.454 3.66,0.044 4.454,4.233 4.454,4.233 -0.059,4.8809998 -0.044,9.0399998 -0.044,9.0399998 l -23.396,0.135 -1.651,-1.59 -40.188,0.138 -1.629,1.594 z" id="B225Casing" style="fill:none;stroke:#231f20;stroke-width:0.705556;stroke-linecap:round;stroke-linejoin:round;stroke-miterlimit:4;stroke-dasharray:none;stroke-opacity:1"/>
</svg>
