<?xml version="1.0" encoding="UTF-8" standalone="no"?>
<svg
   xmlns:dc="http://purl.org/dc/elements/1.1/"
   xmlns:cc="http://creativecommons.org/ns#"
   xmlns:rdf="http://www.w3.org/1999/02/22-rdf-syntax-ns#"
   xmlns:svg="http://www.w3.org/2000/svg"
   xmlns="http://www.w3.org/2000/svg"
   width="186.54428mm"
   height="104.19685mm"
   viewBox="0 0 186.54428 104.19685"
   version="1.1"
   id="svg53291">
<path d="M 0.35277799,19.561778 V 0.35277764 l 2.74900001,0.027 c 0,0 1.778,0.132 2.719,1.89599996 1.294,-1.27899996 3.807,-1.98399996 5.174,0.618 0.469,0.892 0.441,3.307 3.396,5.556 0.838,-2.117 4.762,-3.881 6.526,0.441 0.647,0.294 1.147,0 2.426,1.6310004 1.352,0.059 28.09,0.53 28.09,0.53 0,0 1.323,-2.5140004 3.88,-1.8970004 1.103,-3.086 7.1,-3.792 7.761,2.0290004 0.059,4.704 -0.044,8.085 -0.044,8.085 l -19.006,0.161 -1.102,-1.587 -22.446,0.132 -1.073,1.587 z" id="B300Casing" style="fill:none;stroke:#231f20;stroke-width:0.705556;stroke-linecap:round;stroke-linejoin:round;stroke-miterlimit:4;stroke-dasharray:none;stroke-opacity:1"/>
</svg>
