<?xml version="1.0" encoding="UTF-8" standalone="no"?>
<svg
   xmlns:dc="http://purl.org/dc/elements/1.1/"
   xmlns:cc="http://creativecommons.org/ns#"
   xmlns:rdf="http://www.w3.org/1999/02/22-rdf-syntax-ns#"
   xmlns:svg="http://www.w3.org/2000/svg"
   xmlns="http://www.w3.org/2000/svg"
   width="186.54398mm"
   height="104.19679mm"
   viewBox="0 0 186.54398 104.19679"
   version="1.1"
   id="svg8">
<path d="m 0.35277905,17.2369 0.0176,-16.87688966 c 0,0 7.31202005,-0.007 7.34095005,-0.007 1.14335,-0.0134 1.6757,0.49988 2.5283599,2.02847006 0.67592,1.17616 1.14406,2.00131 1.17581,1.96991 0.2353,0.0293 1.37195,0.0275 1.38183,0 0.47025,-1.29364 4.47005,-4.20617006 7.9375,-0.91158 2.35162,2.2345 2.64583,5.52697 7.08483,6.14433 2.82223,0.0882 3.14537,-1.32291 5.58553,-1.41111 2.55764,0.0589 3.88056,1.61713 4.02767,2.5452896 0.0293,1.20544 -0.0145,6.47312 -0.0145,6.47312 z" id="path8756" style="fill:none;stroke:#231f20;stroke-width:0.705556;stroke-linecap:round;stroke-linejoin:round;stroke-miterlimit:4;stroke-dasharray:none;stroke-opacity:1"/>
</svg>
