<?xml version="1.0" encoding="UTF-8" standalone="no"?>
<svg
   xmlns:dc="http://purl.org/dc/elements/1.1/"
   xmlns:cc="http://creativecommons.org/ns#"
   xmlns:rdf="http://www.w3.org/1999/02/22-rdf-syntax-ns#"
   xmlns:svg="http://www.w3.org/2000/svg"
   xmlns="http://www.w3.org/2000/svg"
   width="186.54398mm"
   height="104.19679mm"
   viewBox="0 0 186.54398 104.19679"
   version="1.1"
   id="svg8">
<path d="m 121.17642,0.35280186 c 1.05234,-0.005 1.05833,1.05833004 0.97014,1.14653004 -0.0882,0.0882 -4.10386,24.6880901 -4.10386,24.6880901 -0.096,0.21308 -88.960335,5.80708 -88.960335,5.80708 l -1.81857,-3.82553 c 0,0 -6.34224,0.17357 -6.51863,0.52635 -0.17638,0.35278 -0.44767,2.98979 -0.44767,2.98979 0,0 -0.18627,0.47625 -0.35242,0.56833 -0.39688,0.22083 -8.31533,0.60113 -8.31533,0.60113 0,0 -0.17568,-2.53471 -2.9026595,-2.47509 -2.1209,0.0466 -2.67264,2.92876 -2.67264,2.92876 0,0 -4.2605,1.0922 -4.70147,0.91581 -0.44097002,-0.17639 -1.00824002,-0.64664 -1.00012002,-1.93181 0.003,-0.44979 3.78953002,-21.50886 3.87773002,-22.3908001 0.0882,-0.88195 0.88194,-1.49931 1.32292,-1.49931 0.44097,0 114.2971745,-8.04333004 115.6229145,-8.04933004 z" id="path10366" style="fill:none;stroke:#231f20;stroke-width:0.705556;stroke-linecap:butt;stroke-linejoin:miter;stroke-miterlimit:4;stroke-dasharray:none;stroke-opacity:1"/>
</svg>
