<?xml version="1.0" encoding="UTF-8" standalone="no"?>
<svg
   xmlns:dc="http://purl.org/dc/elements/1.1/"
   xmlns:cc="http://creativecommons.org/ns#"
   xmlns:rdf="http://www.w3.org/1999/02/22-rdf-syntax-ns#"
   xmlns:svg="http://www.w3.org/2000/svg"
   xmlns="http://www.w3.org/2000/svg"
   width="186.54398mm"
   height="104.19679mm"
   viewBox="0 0 186.54398 104.19679"
   version="1.1"
   id="svg8">
<path d="M 0.35260259,15.957718 V 0.36176783 c 0,0 11.68224041,0.001 11.94682041,0.001 0.22472,0 1.14618,-0.26423 1.71944,1.98402007 2.33645,-0.70556 4.93889,-1.69087007 9.00783,-0.47025 2.93864,0.88159 10.96222,4.64361 19.64655,4.70217 1.74907,0.0116 1.57268,0.41169 2.19004,1.49895 0.66111,0.0441 9.56627,0.0589 9.78641,0.0589 0.22048,0 0.94015,0.0589 1.14617,1.26365 3.32105,0.0882 5.86246,2.5276501 7.72866,3.3944201 0.0441,0.8816 7e-4,3.16301 7e-4,3.16301 z" id="path1904" style="fill:none;fill-opacity:1;stroke:#000001;stroke-width:0.52916667;stroke-linecap:round;stroke-linejoin:round;stroke-miterlimit:3.5573771;stroke-dasharray:none;stroke-opacity:1"/>
</svg>
