<?xml version="1.0" encoding="UTF-8" standalone="no"?>
<svg
   xmlns:dc="http://purl.org/dc/elements/1.1/"
   xmlns:cc="http://creativecommons.org/ns#"
   xmlns:rdf="http://www.w3.org/1999/02/22-rdf-syntax-ns#"
   xmlns:svg="http://www.w3.org/2000/svg"
   xmlns="http://www.w3.org/2000/svg"
   width="186.54398mm"
   height="104.19679mm"
   viewBox="0 0 186.54398 104.19679"
   version="1.1"
   id="svg8">
<path d="m 0.36728109,0.3532494 -0.35278,-7.1e-4 -0.01449999244,8.69421 c 0,0.0946 0.03669999244,0.18345 0.1033599924404,0.25012 0.0663,0.0667 0.15523,0.10337 0.24942,0.10337 H 40.743711 c 0.0928,0 0.1838,-0.0378 0.24942,-0.10337 0.0656,-0.0656 0.10336,-0.15663 0.10336,-0.24941 v -2.00625 c 0,-0.0984 -0.0402,-0.19085 -0.11218,-0.25788 -0.0716,-0.067 -0.16687,-0.10089 -0.26494,-0.0942 l 0.004,0.0529 -0.004,-0.0529 h -3.5e-4 l 0.004,0.0529 -0.004,-0.0529 c -0.004,3.5e-4 -0.0459,0.002 -0.11854,0.002 -0.27305,7e-4 -0.98072,-0.0353 -1.78293,-0.33937 -0.80328,-0.30516 -1.69792,-0.86854 -2.3929,-1.94346 l -0.0106,-0.0155 c -0.34149,-0.46955 -0.79234,-1.18957 -1.58115,-1.82739 -0.78952,-0.63958 -1.92017,-1.18815 -3.58352,-1.3596 l -0.0367,0.35101 h 0.35277 v -1.20403 c 0,-0.0928 -0.0377,-0.1838 -0.10336,-0.24941 C 31.396491,0.0377794 31.305461,9.401108e-6 31.212681,9.401108e-6 H 0.36650109 c -0.19474,0 -0.35243,0.157339998892 -0.35278,0.352069998892 l 0.35278,7.1e-4 v 0.35278 H 30.859901 v 0.85125 c 0,0.18098 0.13618,0.33196 0.31609,0.35066 1.54693,0.16298 2.52307,0.65123 3.21345,1.20685 0.69039,0.55775 1.09185,1.19204 1.4531,1.69228 l 0.28575,-0.20673 -0.29634,0.19121 c 0.78529,1.21814 1.82457,1.87713 2.73615,2.22073 0.91263,0.34467 1.70074,0.38453 2.03235,0.38488 0.10089,0 0.15946,-0.004 0.16686,-0.004 l -0.0243,-0.35149 h -0.35278 v 1.65347 H 0.70556109 l 0.0138,-8.34072 -0.35278,-7.1e-4 v 0.35278 z" id="path9162" style="fill:#231f20;fill-opacity:1;fill-rule:nonzero;stroke:none;stroke-width:0.352778"/>
</svg>
