<?xml version="1.0" encoding="UTF-8" standalone="no"?>
<svg
   xmlns:dc="http://purl.org/dc/elements/1.1/"
   xmlns:cc="http://creativecommons.org/ns#"
   xmlns:rdf="http://www.w3.org/1999/02/22-rdf-syntax-ns#"
   xmlns:svg="http://www.w3.org/2000/svg"
   xmlns="http://www.w3.org/2000/svg"
   width="186.54398mm"
   height="104.19679mm"
   viewBox="0 0 186.54398 104.19679"
   version="1.1"
   id="svg8">
<path d="M 0.35277895,28.592647 H 114.98721 V 9.1062571 c 0,0 -1.97802,-0.56127 -2.58833,-1.29399 -0.76094,-0.91334 -1.52259,-2.35973 -1.52259,-2.35973 h -1.90253 l -2.66418,-5.09975007 -4.49086,0.0762 -2.892781,7.38328007 c 0,0 -0.83678,-7.30744007 -8.52522,-7.30744007 -7.23124,0.53305007 -7.53569,8.44903007 -7.53569,8.44903007 0,0 -0.30409,-7.00299 -8.14458,-7.38329 -7.53569,0.38065 -7.76429,8.6014299 -7.76429,8.6014299 0,0 -0.22824,-9.21031997 -9.81921,-9.21031997 -8.75348,0 -9.28617,9.59096997 -9.28617,9.59096997 0,0 -0.14711,-8.1195299 -7.91633,-8.3731799 -7.003,-0.22825 -7.99254,7.45948 -7.99254,7.45948 0,0 0.22825,-7.53568 -7.99253,-7.91633 -7.15504,0.2286 -7.91633,7.84049 -7.91633,7.84049 l -4.26262,-8.29698 h -4.49086 l -1.29399,4.71946 h -1.90288 c 0,0 -0.38065,1.75083 -1.44639,2.58798 -1.06539,0.83714 -2.20733005,0.98954 -2.20733005,0.98954 z" id="path4408" style="fill:none;stroke:#231f20;stroke-width:0.705556;stroke-linecap:butt;stroke-linejoin:round;stroke-miterlimit:4;stroke-dasharray:none;stroke-opacity:1"/>
</svg>
