<?xml version="1.0" encoding="UTF-8" standalone="no"?>
<svg
   xmlns:dc="http://purl.org/dc/elements/1.1/"
   xmlns:cc="http://creativecommons.org/ns#"
   xmlns:rdf="http://www.w3.org/1999/02/22-rdf-syntax-ns#"
   xmlns:svg="http://www.w3.org/2000/svg"
   xmlns="http://www.w3.org/2000/svg"
   width="186.54398mm"
   height="104.19679mm"
   viewBox="0 0 186.54398 104.19679"
   version="1.1"
   id="svg8">
<path d="M 0.35277909,27.409137 H 90.540059 V 7.5428074 c 0,0 -1.89194,-0.1263 -3.21627,-1.0093 -1.32433,-0.883 -1.26118,-1.89195 -1.26118,-1.89195 h -1.76601 c 0,0 -0.23812,-3.65795007 -2.45992,-3.65795007 h -7.63128 c 0,0 -2.77495,4.54096007 -3.09034,4.41466007 -0.31503,-0.12594 -0.29668,-4.29683 -4.21957,-4.17512 -4.55119,0.14111 -3.42936,4.17442 -4.62951,4.17442 -1.19838,0 0.30939,-4.15184 -4.55012,-4.20582 -4.35011,-0.0483 -3.5994,4.12009 -4.2979,4.09575 -1.36525,-0.0469 1.58504,-4.32400007 -8.23983,-4.07282 -9.20361,-0.15804 -5.83882,4.05483 -7.6782,4.24674 -0.81986,0 0.58525,-4.26297 -4.64856,-4.16595 -4.37938,0.0811 -2.75731,4.13632 -4.30706,4.16595 -1.01106,0.0194 -0.0632,-4.41501 -4.54096,-4.35187 -3.78354,0.0533 -4.22557,4.22558 -4.22557,4.22558 l -3.53201,-4.91914007 -7.1896099,-0.0632 c 0,0 -2.27048,0.81986007 -2.27048,3.72110007 h -1.766 c 0,0 -0.56727,1.57657 -1.8288,2.14419 -1.26154,0.56762 -2.83810001,0.50447 -2.83810001,0.50447 z" id="path4420" style="fill:none;stroke:#231f20;stroke-width:0.705556;stroke-linecap:round;stroke-linejoin:round;stroke-miterlimit:4;stroke-dasharray:none;stroke-opacity:1"/>
</svg>
