<?xml version="1.0" encoding="UTF-8" standalone="no"?>
<svg
   xmlns:dc="http://purl.org/dc/elements/1.1/"
   xmlns:cc="http://creativecommons.org/ns#"
   xmlns:rdf="http://www.w3.org/1999/02/22-rdf-syntax-ns#"
   xmlns:svg="http://www.w3.org/2000/svg"
   xmlns="http://www.w3.org/2000/svg"
   width="186.54398mm"
   height="104.19679mm"
   viewBox="0 0 186.54398 104.19679"
   version="1.1"
   id="svg8">
<path d="m 83.781547,18.139347 45.457533,-0.0145 c 0,0 0.52106,-0.57362 0.63888,-0.77929 0.3295,-1.37619 2.65748,-11.9210695 2.75661,-13.7399895 -0.0109,-2.94146002 -2.78624,-3.26707002 -3.65337,-3.25226002 -0.17639,0.003 -128.62842282,0 -128.62842282,0 l 0.54081,10.28946952 c 0,0 0,0.76412 1.05833002,0.92604 0.33479,0.0512 4.57165,-0.0148 4.57165,-0.0148 l 1.77835,-0.86713 18.6114998,0.0466 c 0,0 0.89147,0.83996 1.11478,0.86465 0.26458,0.0293 4.70394,0.0444 5.0419,0.0148 0.35383,-0.031 1.3081,-0.97014 1.3081,-0.97014 l 17.87419,-0.0148 c 0,0 0.84667,0.94085 1.24919,0.99942 0.26211,0.0381 5.14491,0.0148 5.14491,0.0148 0,0 0.95497,-0.7934 1.11689,-0.95532 0.58773,0 17.80046,-0.0148 17.80046,-0.0148 0,0 0.5588,1.04352 1.64642,1.13171 0.0296,0.002 4.58611,0 4.58611,0 z" id="path5806" style="fill:none;stroke:#231f20;stroke-width:0.705556;stroke-linecap:round;stroke-linejoin:round;stroke-miterlimit:4;stroke-dasharray:none;stroke-opacity:1"/>
</svg>
