<?xml version="1.0" encoding="UTF-8" standalone="no"?>
<svg
   xmlns:dc="http://purl.org/dc/elements/1.1/"
   xmlns:cc="http://creativecommons.org/ns#"
   xmlns:rdf="http://www.w3.org/1999/02/22-rdf-syntax-ns#"
   xmlns:svg="http://www.w3.org/2000/svg"
   xmlns="http://www.w3.org/2000/svg"
   width="186.54398mm"
   height="104.19679mm"
   viewBox="0 0 186.54398 104.19679"
   version="1.1"
   id="svg8">
<path d="m 0.35277885,26.855217 0.17639,-26.50242961 H 7.0996589 l 1.41111,3.83645001 c 0,0 2.1159601,-3.09068 4.2774301,-3.48368001 2.91041,-0.52916 4.40972,0.22049 6.65868,5.46806001 1.68628,3.9348796 2.11666,4.3215296 5.24757,5.4680596 0.26529,0.097 0.52916,1.89618 0.52916,1.89618 h 1.23473 c 0,0 1.19062,-2.55764 1.5875,-2.99862 1.27881,-1.8079796 4.10104,-2.1607596 5.99722,0.48507 0.74965,1.05834 2.38125,4.14514 2.38125,4.14514 l 2.95451,1.05834 0.44097,0.83784 34.61632,-0.13229 0.57327,-2.24896 h 2.48143 c 0.38489,-3.35139 2.81023,-5.8208296 5.80884,-5.6821896 2.48815,-0.0342 4.92125,1.6471196 5.34776,5.1410296 -0.17639,9.17222 -0.14428,12.712 -0.14428,12.712 l -20.7257,-0.0321 -1.5875,-1.62349 -43.39166,-0.0522 -1.85209,1.6316 z" id="path6956" style="fill:none;stroke:#231f20;stroke-width:0.705556;stroke-linecap:round;stroke-linejoin:round;stroke-miterlimit:4;stroke-dasharray:none;stroke-opacity:1"/>
</svg>
