<?xml version="1.0" encoding="UTF-8" standalone="no"?>
<svg
   xmlns:dc="http://purl.org/dc/elements/1.1/"
   xmlns:cc="http://creativecommons.org/ns#"
   xmlns:rdf="http://www.w3.org/1999/02/22-rdf-syntax-ns#"
   xmlns:svg="http://www.w3.org/2000/svg"
   xmlns="http://www.w3.org/2000/svg"
   width="186.54398mm"
   height="104.19679mm"
   viewBox="0 0 186.54398 104.19679"
   version="1.1"
   id="svg8">
<path d="m 0.35277901,17.051117 0.0349,-16.69132961 21.70252999,-0.007 c 0,0 0.99942,0.11747 1.05833,1.23472001 0.70556,0.0586 1.11725,0.0882 1.55822,0.17639 0.3937,0.0787 1.2379,0.13441 2.52801,0.94051 1.41111,0.88194 1.44039,1.67604 5.17419,2.67546 1.29328,0.44097 2.08739,1.14653 3.05753,2.64584 1.08761,-0.5588 10.789,-3.52778 18.22661,-3.41031 8.38377,0.13229 15.34584,1.911 18.87361,3.38067 1.99884,-2.46909 2.17558,-2.38125 5.26239,-3.175 1.76389,-0.67592 3.02083,-2.50825 4.7625,-2.82222 1.79317,-0.32314 2.35162,-0.35278 2.35162,-0.35278 0,0 0.1471,-1.02870001 0.88194,-1.14653001 0.93098,-0.14887 21.931141,-0.0586 21.931141,-0.0586 V 17.109337 H 82.020809 l -1.60479,-1.56986 -52.92337,-0.0176 -1.52188,1.5875 z" id="path6968" style="fill:none;fill-opacity:1;stroke:#000001;stroke-width:0.52916667;stroke-linecap:round;stroke-linejoin:round;stroke-miterlimit:3.5573771;stroke-dasharray:none;stroke-opacity:1"/>
</svg>
