<?xml version="1.0" encoding="UTF-8" standalone="no"?>
<svg
   xmlns:dc="http://purl.org/dc/elements/1.1/"
   xmlns:cc="http://creativecommons.org/ns#"
   xmlns:rdf="http://www.w3.org/1999/02/22-rdf-syntax-ns#"
   xmlns:svg="http://www.w3.org/2000/svg"
   xmlns="http://www.w3.org/2000/svg"
   width="186.54428mm"
   height="104.19685mm"
   viewBox="0 0 186.54428 104.19685"
   version="1.1"
   id="svg53291">
<path d="m 0.35628794,29.972288 0.042,-29.53300015 16.07300006,0.059 0.659,7.79500005 c 0,0 4.199,-6.367 10.735,-6.367 7.257,0 10.615,5.78 10.615,5.78 0,0 3.839,-5.897 10.615,-5.897 6.778,0 10.016,5.485 10.016,5.485 0,0 3.358,-5.468 10.075,-5.468 6.417,0 10.315,5.527 10.315,5.527 0,0 3.779,-5.586 10.376,-5.586 6.597,0 10.375002,5.257 10.375002,5.257 0,0 3.658,-5.257 9.955,-5.257 6.417,0 10.135,5.433 10.135,5.433 l 1.08,-6.78500005 15.83281,-0.059 V 29.678288 h -21.04981 c 0,0 -1.26,-9.272 -10.076,-9.272 -8.156002,0 -9.775002,9.448 -9.775002,9.448 h -5.422 c 0,0 -1.355,-9.389 -10.171,-9.389 -8.816,0 -10.315,9.348 -10.315,9.348 l -4.978,0.059 c 0,0 -1.319,-9.466 -10.255,-9.466 -8.216,0 -9.794,9.466 -9.794,9.466 l -5.619,0.059 c 0,0 -1.08,-9.466 -9.776,-9.466 -8.816,0 -10.177,9.448 -10.177,9.448 z" id="S14 Pilaster" style="fill:none;stroke:#231f20;stroke-width:0.712576;stroke-linecap:round;stroke-linejoin:round;stroke-miterlimit:4;stroke-dasharray:none;stroke-opacity:1"/>
</svg>
