<?xml version="1.0" encoding="UTF-8" standalone="no"?>
<svg
   xmlns:dc="http://purl.org/dc/elements/1.1/"
   xmlns:cc="http://creativecommons.org/ns#"
   xmlns:rdf="http://www.w3.org/1999/02/22-rdf-syntax-ns#"
   xmlns:svg="http://www.w3.org/2000/svg"
   xmlns="http://www.w3.org/2000/svg"
   width="186.54428mm"
   height="104.19685mm"
   viewBox="0 0 186.54428 104.19685"
   version="1.1"
   id="svg53291">
<path d="M 186.1825,0.50848934 V 29.830489 l -32.621,0.164 c 0,0 -0.703,-8.819 -8.667,-8.819 -9.075,0 -9.26,8.719 -9.26,8.719 l -7.54201,0.013 c 0,0 -0.515,-8.588 -8.933,-8.588 -7.417,0 -8.704,8.688 -8.704,8.688 h -8.3 c 0,0 -0.6,-8.629 -8.951001,-8.629 -8.41,0 -8.54,8.587 -8.54,8.587 l -7.842,0.059 c 0,0 -0.64,-8.629 -8.718,-8.629 -8.458,0 -9.362,8.629 -9.362,8.629 l -7.703,0.059 c 0,0 -0.231,-8.629 -8.545,-8.629 -8.447,0 -9.038,8.612 -9.038,8.612 l -33.09499955,0.058 0.044,-29.53299966 28.93599955,0.059 0.999,7.64299996 c 0,0 2.643,-4.311 9.372,-4.311 7.47,0 10.927,4.713 10.927,4.713 0,0 3.952,-4.831 10.928,-4.831 6.976,0 10.469,4.42 10.469,4.42 0,0 3.775,-4.479 10.212,-4.479 7.454,0 10.858,4.842 10.858,4.842 0,0 4.159,-5.01 10.950001,-5.01 7.315,0 10.891,4.758 10.891,4.758 0,0 4.486,-4.725 10.968,-4.725 6.60601,0 10.27301,4.901 10.27301,4.901 0,0 3.613,-5.035 10.002,-5.035 7.316,0 10.966,4.534 10.966,4.534 l 0.888,-7.70899996 z" id="S15Pilaster" style="fill:none;stroke:#231f20;stroke-width:0.722979;stroke-linecap:round;stroke-linejoin:round;stroke-miterlimit:4;stroke-dasharray:none;stroke-opacity:1"/>
</svg>
