<?xml version="1.0" encoding="UTF-8" standalone="no"?>
<svg
   xmlns:dc="http://purl.org/dc/elements/1.1/"
   xmlns:cc="http://creativecommons.org/ns#"
   xmlns:rdf="http://www.w3.org/1999/02/22-rdf-syntax-ns#"
   xmlns:svg="http://www.w3.org/2000/svg"
   xmlns="http://www.w3.org/2000/svg"
   width="186.54428mm"
   height="104.19685mm"
   viewBox="0 0 186.54428 104.19685"
   version="1.1"
   id="svg53291">
<path d="m 121.17587,0.35279246 c 1.052,-0.005 1.058,1.05800004 0.97,1.14600004 -0.088,0.088 -4.104,24.6879995 -4.104,24.6879995 -0.096,0.213 -88.959998,5.807 -88.959998,5.807 l -1.818,-3.825 c 0,0 -6.343,0.173 -6.519,0.526 -0.176,0.353 -0.448,2.99 -0.448,2.99 0,0 -0.186,0.476 -0.352,0.568 -0.397,0.221 -8.316,0.601 -8.316,0.601 0,0 -0.175,-2.534 -2.9020004,-2.475 -2.121,0.047 -2.673,2.929 -2.673,2.929 0,0 -4.26,1.092 -4.701,0.916 -0.44100001,-0.177 -1.00900001,-0.647 -1.00000001,-1.932 0.003,-0.45 3.78900001,-21.509 3.87700001,-22.3909995 0.089,-0.882 0.882,-1.499 1.323,-1.499 0.441,0 114.2969984,-8.04300004 115.6229984,-8.04900004 z" id="TraditionalSill" style="fill:none;stroke:#231f20;stroke-width:0.705556;stroke-linecap:butt;stroke-linejoin:miter;stroke-miterlimit:4;stroke-dasharray:none;stroke-opacity:1"/>
</svg>
