<?xml version="1.0" encoding="UTF-8" standalone="no"?>
<svg
   xmlns:dc="http://purl.org/dc/elements/1.1/"
   xmlns:cc="http://creativecommons.org/ns#"
   xmlns:rdf="http://www.w3.org/1999/02/22-rdf-syntax-ns#"
   xmlns:svg="http://www.w3.org/2000/svg"
   xmlns="http://www.w3.org/2000/svg"
   width="186.54398mm"
   height="104.19679mm"
   viewBox="0 0 186.54398 104.19679"
   version="1.1"
   id="svg8">
<path d="m 88.912221,14.27682 v 2.82222 l -22.84236,0.1323 -1.85209,-1.76389 -40.56944,0.17639 -1.54764,1.59949 -21.74768992,0.012 V 0.39819999 l 9.71337992,-0.0441 c 0,0 2.07257,-0.14428 3.88056,2.06057001 0.66146,0.22049 3.12561,-3.64101 16.00729,0.48507 11.28889,3.61598 15.69861,4.40973 23.94479,3.04271 2.42535,-0.52916 3.47169,2.10467 3.47169,2.10467 0,0 20.53696,-0.12029 21.06648,-0.12029 0,0 0.77364,-0.0882 1.17051,0.70555 0.39688,0.79375 0.57327,1.6316 0.52917,1.6316 -0.0441,0 1.67569,0.35278 3.48368,1.5875 2.05387,1.403 4.18924,2.29306 5.29167,2.42535 z" id="path6908" style="fill:#53677e;stroke:#fdfefd;stroke-width:0.706;stroke-linecap:round;stroke-linejoin:round;stroke-miterlimit:4;stroke-dasharray:none;stroke-opacity:1.0;fill-opacity:1.0"/>
</svg>
