<?xml version="1.0" encoding="UTF-8" standalone="no"?>
<svg
   xmlns:dc="http://purl.org/dc/elements/1.1/"
   xmlns:cc="http://creativecommons.org/ns#"
   xmlns:rdf="http://www.w3.org/1999/02/22-rdf-syntax-ns#"
   xmlns:svg="http://www.w3.org/2000/svg"
   xmlns="http://www.w3.org/2000/svg"
   width="186.54398mm"
   height="104.19679mm"
   viewBox="0 0 186.54398 104.19679"
   version="1.1"
   id="svg8">
<path d="m 0.39687899,17.065637 -0.0441,-16.71285003 c 0,0 11.11250001,0.1323 11.37709001,0.22049 0.26458,0.0882 0.74965,1.49931003 0.74965,1.49931003 0,0 3.61597,-2.02848003 7.8934,-0.17639 4.27743,1.85208 4.88844,3.13302 9.01806,2.82222 2.05034,-0.15452 2.46944,-0.72778 3.83646,-0.72778 2.37454,0 3.19687,2.40347 3.19687,2.40347 0,0 16.94709,0.42757 17.8375,0.48507 0.68333,0.0441 1.45521,2.27119 1.56528,2.35938 0.57326,-0.52917 1.09114,-2.03306 3.66006,-2.22709 2.33716,-0.17638 3.84211,2.32728 3.96875,3.08681 0.0882,0.52917 0.0882,6.35 0.0882,6.35 l -17.63888,0.18838 -1.65559,-1.56739 -25.81699,0.14429 -1.76389,1.76389 z" id="path7112" style="fill:#ba92d9;stroke:#7038e3;stroke-width:0.705556;stroke-linecap:round;stroke-linejoin:round;stroke-miterlimit:4;stroke-dasharray:none;stroke-opacity:1.0;fill-opacity:1.0"/>
</svg>
