<?xml version="1.0" encoding="UTF-8" standalone="no"?>
<svg
   xmlns:dc="http://purl.org/dc/elements/1.1/"
   xmlns:cc="http://creativecommons.org/ns#"
   xmlns:rdf="http://www.w3.org/1999/02/22-rdf-syntax-ns#"
   xmlns:svg="http://www.w3.org/2000/svg"
   xmlns="http://www.w3.org/2000/svg"
   width="186.54398mm"
   height="104.19679mm"
   viewBox="0 0 186.54398 104.19679"
   version="1.1"
   id="svg8">
<path d="M 0.35277909,26.957281 V 5.7221708 c 0,0 2.90512001,0.002 3.64807001,-2.22673 0.43357,0 1.49931,-0.17639 1.49931,-0.17639 0,0 0.22048,-2.82222002 2.07257,-2.82222002 1.60972,0 3.6600699,0.0441 3.6600699,0.0441 l 2.24896,3.04271002 c 0,0 4.54201,-5.99722 9.21631,0.17639 0.49566,0.0621 0.83785,0.0441 0.83785,0.0441 0,0 0.22049,2.82222 2.64584,3.0868 2.49943,0.2727 3.175,-2.51354 3.175,-2.51354 l 1.4993,-0.0882 c 0,0 0.83397,-3.38032002 3.57188,-3.74826002 2.95451,-0.39688 5.20347,-0.0441 5.20347,-0.0441 0,0 3.57187,0.70555002 3.74897,3.86327002 0.55703,0 1.63089,0.0614 1.63089,0.0614 0,0 1.10243,2.68993 2.86632,2.64583 2.29623,-0.0572 3.06916,-2.12231 3.1309,-3.175 0.13229,0 1.17757,-0.0275 1.17757,-0.0275 0,0 1.51307,-3.09174002 4.15819,-3.01519002 3.04271,0.0882 4.58612,2.99861002 4.58612,2.99861002 l 2.16076,-2.95451002 h 3.83646 c 0,0 1.85208,0.88194002 1.77482,2.97109002 0.43321,-0.0621 1.36172,0.0141 1.36172,0.0141 0,0 0.77612,2.17417 3.72887,2.4003 0.12382,0.9906 -0.0141,20.7401602 -0.0141,20.7401602 z" id="path4444" style="fill:#1c84f9;stroke:#f5f4ea;stroke-width:0.705556;stroke-linecap:round;stroke-linejoin:round;stroke-miterlimit:4;stroke-dasharray:none;stroke-opacity:1.0;fill-opacity:1.0"/>
</svg>
