<?xml version="1.0" encoding="UTF-8" standalone="no"?>
<svg
   xmlns:dc="http://purl.org/dc/elements/1.1/"
   xmlns:cc="http://creativecommons.org/ns#"
   xmlns:rdf="http://www.w3.org/1999/02/22-rdf-syntax-ns#"
   xmlns:svg="http://www.w3.org/2000/svg"
   xmlns="http://www.w3.org/2000/svg"
   width="186.54398mm"
   height="104.19679mm"
   viewBox="0 0 186.54398 104.19679"
   version="1.1"
   id="svg8">
<path d="m 0.35277901,27.090517 0.0441,-20.0349496 c 0,0 3.13089999,-1.14653 3.96874999,-3.70417 1.11724,0 1.8669,0.0441 1.8669,0.0441 l 1.1758,-3.04271001 h 10.53924 l 3.57187,3.52778001 c 0,0 5.86493,-7.23195 12.7,-0.0441 0.39688,0 1.71979,0.0882 1.71979,0.0882 0,0 -0.35277,1.36701 0.66146,2.91041 0.92604,1.41111 5.24757,3.3072896 8.37847,-0.0882 h 3.175 c 0,0 -0.0882,-5.33576 5.77674,-6.12951001 4.29225,0.11783 10.916,-0.0568 11.53336,-0.0441 2.16077,0.0441 5.66456,1.41111001 6.14963,6.26181001 0.88194,0.0589 3.48368,0 3.48368,0 0,0 0.77399,1.25589 2.51354,1.67569 2.29305,0.55351 5.86493,-0.0882 5.90903,-4.63021 0.88194,-0.0441 1.7346,-0.0734 1.7346,-0.0734 0,0 5.79156,-7.11447 12.72928,0.11747 1.64607,-1.64606 2.969341,-3.09880001 2.969341,-3.09880001 l 10.58333,-0.0173 1.25201,3.15772001 1.7466,-0.0416 c 0,0 0.69074,2.51354 3.98074,3.76308 0,1.76389 -0.0413,19.3851396 -0.0413,19.3851396 z" id="path4396" style="fill:#d3d845;fill-opacity:1;stroke:#000001;stroke-width:0.52916667;stroke-linecap:round;stroke-linejoin:round;stroke-miterlimit:3.5573771;stroke-dasharray:none;stroke-opacity:1"/>
</svg>
