<?xml version="1.0" encoding="UTF-8" standalone="no"?>
<svg
   xmlns:dc="http://purl.org/dc/elements/1.1/"
   xmlns:cc="http://creativecommons.org/ns#"
   xmlns:rdf="http://www.w3.org/1999/02/22-rdf-syntax-ns#"
   xmlns:svg="http://www.w3.org/2000/svg"
   xmlns="http://www.w3.org/2000/svg"
   width="186.54398mm"
   height="104.19679mm"
   viewBox="0 0 186.54398 104.19679"
   version="1.1"
   id="svg8">
<path d="m 30.045445,1.4993319 c 0,0 91.454815,-1.14053004 92.780555,-1.14653004 1.05199,-0.005 1.05834,1.05834004 0.97014,1.14653004 -0.0882,0.0882 -4.85069,18.6090301 -4.85069,18.6090301 l -7.9375,-2.11667 c -0.096,0.21308 -1.6757,6.87917 -2.02847,7.05556 -0.35278,0.17639 -83.520145,0.97014 -83.520145,0.97014 l 0.0882,-5.60035 c 0,0 -7.23194,-0.39688 -7.40833,-0.0441 -0.17639,0.35278 -1.14688,5.20841 -1.14688,5.20841 0,0 -0.18627,0.4759 -0.35243,0.56833 -0.39687,0.22084 -6.40856,0.22084 -6.40856,0.22084 0,0 -0.0296,-1.58786 -1.4407397,-1.58786 -1.41111,0 -1.52859,1.53423 -1.52859,1.53423 0,0 -5.46805,0.14147 -5.90902,-0.0349 -0.44098001,-0.17639 -1.00824001,-0.64664 -1.00013001,-1.93217 0.003,-0.44943 2.26413001,-16.2358901 2.35232001,-17.1178301 0.0882,-0.88195 0.88195,-1.49931 1.32292,-1.49931 0.44097,0 24.7826397,0.0882 24.7826397,0.0882 z" id="path10454" style="fill:#e9965e;stroke:#0127b4;stroke-width:0.705556;stroke-linecap:butt;stroke-linejoin:miter;stroke-miterlimit:4;stroke-dasharray:none;stroke-opacity:1.0;fill-opacity:1.0"/>
</svg>
