<?xml version="1.0" encoding="UTF-8" standalone="no"?>
<svg
   xmlns:dc="http://purl.org/dc/elements/1.1/"
   xmlns:cc="http://creativecommons.org/ns#"
   xmlns:rdf="http://www.w3.org/1999/02/22-rdf-syntax-ns#"
   xmlns:svg="http://www.w3.org/2000/svg"
   xmlns="http://www.w3.org/2000/svg"
   width="186.54398mm"
   height="104.19679mm"
   viewBox="0 0 186.54398 104.19679"
   version="1.1"
   id="svg8">
<path d="M 0.398679,27.591009 0.352779,6.7989896 c 0,0 3.4424,0.18344 4.54377,-2.8 h 1.69828 c 0,0 0.13793,-2.98344 2.11137,-3.44240005 1.69827,-0.13759 4.77379,0 4.77379,0 l 2.75378,3.71792005 c 0,0 5.53791,-7.29791 11.1379,0.13759 0.64241,0.0459 1.02518,0.0459 1.02518,0.0459 0,0 0.32138,2.06551 1.78999,3.30482 2.15724,1.19344 4.08481,0.50482 5.27861,-2.52448 0.68827,-0.0459 1.78965,0 1.78965,0 0,0 0.13793,-4.17689 5.23275,-4.86516005 2.66206,-0.0459 4.68136,0 4.68136,0 0,0 4.81965,0.59655 5.23275,4.86516005 0.13829,0.0212 0.78035,0.0459 2.01965,0 0,0 0.78035,3.2131 3.76379,3.12102 2.99473,-0.0921 3.41136,-3.67171 3.50344,-3.76378 0.0921,-0.0917 1.26964,0 1.26964,0 0,0 1.51483,-3.16689 4.49827,-3.62585005 1.88948,-0.1644 4.08482,0.36724005 6.10482,3.62585005 1.00965,-1.51448 2.56999,-3.57999 2.56999,-3.57999 l 4.58964,-0.0459 c 0,0 1.97379,0.50482999 2.38689,3.62584999 0.0459,-0.0455 1.46897,0 1.46897,0 0,0 0.87207,2.70828 4.54378,2.89172 0.0459,1.33138 0,20.1037494 0,20.1037494 z" id="path4432" style="fill:#40736b;fill-opacity:1;stroke:#000001;stroke-width:0.52916667;stroke-linecap:round;stroke-linejoin:round;stroke-miterlimit:3.5573771;stroke-dasharray:none;stroke-opacity:1"/>
</svg>
