<?xml version="1.0" encoding="UTF-8" standalone="no"?>
<svg
   xmlns:dc="http://purl.org/dc/elements/1.1/"
   xmlns:cc="http://creativecommons.org/ns#"
   xmlns:rdf="http://www.w3.org/1999/02/22-rdf-syntax-ns#"
   xmlns:svg="http://www.w3.org/2000/svg"
   xmlns="http://www.w3.org/2000/svg"
   width="186.54398mm"
   height="104.19679mm"
   viewBox="0 0 186.54398 104.19679"
   version="1.1"
   id="svg8">
<path d="m 0.35277895,17.145919 15.85595005,0.005 1.61043,-1.61043 h 25.89988 l 1.63266,1.63265 h 16.48354 v -5.61375 l -3.62303,-0.58138 c 0,0 -1.16275,-3.1312501 -4.15995,-4.3839701 -2.9972,-1.25236 -4.717,-0.22048 -6.28262,0.31645 0,0 -0.41804,0.22613 -0.77753,0 -0.34995,-0.22014 -1.28305,-1.63266 -2.06516,-1.56881 -1.52682,0.12418 -4.42842,1.43122 -7.60447,1.43122 -5.94995,0 -8.63353,-1.69968 -18.29541,-5.59117 -11.24197,-3.62903 -13.54702,5.66984 -14.7387,6.42091 -0.3108,-0.0519 -1.39842,-0.0519 -1.39842,-0.0519 0,0 -0.36265,0.69956 -1.0361,1.45062 0,0 -0.56974,0.69956 -1.47532005,1.3493701 z" id="path7662" style="fill:#e69fbd;fill-opacity:1;stroke:#000001;stroke-width:0.52916667;stroke-linecap:butt;stroke-linejoin:round;stroke-miterlimit:3.5573771;stroke-dasharray:none;stroke-opacity:1"/>
</svg>
