<?xml version="1.0" encoding="UTF-8" standalone="no"?>
<svg
   xmlns:dc="http://purl.org/dc/elements/1.1/"
   xmlns:cc="http://creativecommons.org/ns#"
   xmlns:rdf="http://www.w3.org/1999/02/22-rdf-syntax-ns#"
   xmlns:svg="http://www.w3.org/2000/svg"
   xmlns="http://www.w3.org/2000/svg"
   width="186.54398mm"
   height="104.19679mm"
   viewBox="0 0 186.54398 104.19679"
   version="1.1"
   id="svg8">
<path d="m 0.38245377,17.314041 c 0,0 -0.0152,-13.46447 -0.0293,-14.22858 -0.0282,-1.49402 1.54023003,-2.71216001 3.15242003,-2.64584001 0.0638,0.002 10.1487102,-0.14605 12.1172102,-0.0589 0.66428,0.0296 2.25178,1.08797001 2.60456,2.67547001 0.94086,-0.23531 3.4484,-1.08515 5.52662,-1.02906 2.17558,0.0586 2.99896,-0.35277 9.37824,2.55764 1.67569,0.85231 6.99664,2.91042 14.64028,1.6757 0.0293,0.79375 0.0589,1.41111 0.0589,1.41111 0,0 11.75914,-0.11748 12.22939,-0.11748 0.47025,0 2.32234,0.29422 2.91042,2.52836 0.0589,2.35162 0.0296,6.79097 0.0296,6.79097 l -17.81528,0.12947 -1.52894,-1.49401 -24.10636,0.1591 -1.52894,1.52859 z" id="path7298" style="fill:#fce8fd;fill-opacity:1;stroke:#000001;stroke-width:0.52916667;stroke-linecap:round;stroke-linejoin:round;stroke-miterlimit:3.5573771;stroke-dasharray:none;stroke-opacity:1"/>
</svg>
