<?xml version="1.0" encoding="UTF-8" standalone="no"?>
<svg
   xmlns:dc="http://purl.org/dc/elements/1.1/"
   xmlns:cc="http://creativecommons.org/ns#"
   xmlns:rdf="http://www.w3.org/1999/02/22-rdf-syntax-ns#"
   xmlns:svg="http://www.w3.org/2000/svg"
   xmlns="http://www.w3.org/2000/svg"
   width="186.54398mm"
   height="104.19679mm"
   viewBox="0 0 186.54398 104.19679"
   version="1.1"
   id="svg8">
<path d="M 0.17639009,19.385498 V 0.17639823 l 2.74885001,0.0268 c 0,0 1.77835,0.13229 2.71921,1.89618007 1.29363,-1.27882007 3.80717,-1.98437007 5.1741899,0.61736 0.46849,0.89183 0.44097,3.3073 3.39548,5.55625 0.83785,-2.11666 4.7625,-3.88055 6.52639,0.44098 0.64664,0.29386 1.14653,0 2.42535,1.6315897 1.3522,0.0589 28.08993,0.52917 28.08993,0.52917 0,0 1.32292,-2.5135397 3.88056,-1.8961797 1.10243,-3.08681 7.09965,-3.79236 7.76111,2.0284697 0.0586,4.70394 -0.0441,8.08461 -0.0441,8.08461 l -19.00591,0.16157 -1.10243,-1.5875 -22.44548,0.13229 -1.07315,1.5875 z" id="path7056" style="fill:#ab5ea5;fill-opacity:1;stroke:#000001;stroke-width:0.52916667;stroke-linecap:round;stroke-linejoin:round;stroke-miterlimit:3.5573771;stroke-dasharray:none;stroke-opacity:1"/>
</svg>
