<?xml version="1.0" encoding="UTF-8" standalone="no"?>
<svg
   xmlns:dc="http://purl.org/dc/elements/1.1/"
   xmlns:cc="http://creativecommons.org/ns#"
   xmlns:rdf="http://www.w3.org/1999/02/22-rdf-syntax-ns#"
   xmlns:svg="http://www.w3.org/2000/svg"
   xmlns="http://www.w3.org/2000/svg"
   width="186.54398mm"
   height="104.19679mm"
   viewBox="0 0 186.54398 104.19679"
   version="1.1"
   id="svg8">
<path d="m 0.35628903,29.972287 0.0425,-29.53278974 16.07231997,0.0586 0.65993,7.79568004 c 0,0 4.19818,-6.36728 10.73491,-6.36728 7.25676,0 10.61508,5.77956 10.61508,5.77956 0,0 3.83834,-5.89704 10.61508,-5.89704 6.77711,0 10.01525,5.48534 10.01525,5.48534 0,0 3.35868,-5.46805 10.07569,-5.46805 6.41691,0 10.31498,5.52697 10.31498,5.52697 0,0 3.77861,-5.58588 10.37544,-5.58588 6.59718,0 10.375071,5.25709 10.375071,5.25709 0,0 3.65842,-5.25709 9.95551,-5.25709 6.41691,0 10.13506,5.43348 10.13506,5.43348 l 1.0795,-6.78568004 15.83303,-0.0589 V 29.678477 h -21.05025 c 0,0 -1.25942,-9.27241 -10.07533,-9.27241 -8.156351,0 -9.775601,9.4488 -9.775601,9.4488 h -5.42232 c 0,0 -1.35442,-9.38989 -10.17033,-9.38989 -8.81592,0 -10.31534,9.34861 -10.31534,9.34861 l -4.97794,0.0586 c 0,0 -1.31915,-9.46608 -10.25525,-9.46608 -8.21607,0 -9.79322,9.46608 -9.79322,9.46608 l -5.61952,0.0589 c 0,0 -1.0795,-9.46608 -9.77559,-9.46608 -8.81592,0 -10.17753,9.4488 -10.17753,9.4488 z" id="path6198" style="fill:#aa66cd;fill-opacity:1;stroke:#000001;stroke-width:0.52916667;stroke-linecap:round;stroke-linejoin:round;stroke-miterlimit:3.5573771;stroke-dasharray:none;stroke-opacity:1"/>
</svg>
