<?xml version="1.0" encoding="UTF-8" standalone="no"?>
<svg
   xmlns:dc="http://purl.org/dc/elements/1.1/"
   xmlns:cc="http://creativecommons.org/ns#"
   xmlns:rdf="http://www.w3.org/1999/02/22-rdf-syntax-ns#"
   xmlns:svg="http://www.w3.org/2000/svg"
   xmlns="http://www.w3.org/2000/svg"
   width="186.54398mm"
   height="104.19679mm"
   viewBox="0 0 186.54398 104.19679"
   version="1.1"
   id="svg8">
<path d="m 0.35277895,18.610085 0.0589,-15.0427897 c 0,0 0.084,-2.96299008 3.26319005,-3.17500008 2.64584,-0.17639 8.42257,0.30868 8.42257,0.30868 0,0 1.14653,-0.0441 2.01366,1.52893008 0.88194,-0.4706 3.59304,-2.71286008 7.02627,-0.0296 3.83646,2.99862 2.71921,2.99862 8.0257,5.42396 0.74965,-3.92465 6.08541,-4.23333 6.92326,0.0441 3.40995,-0.17639 37.5853,-1.85208 37.5853,-1.85208 0,0 2.58727,-0.11712 3.82199,3.6456 1.3522,0.0586 1.76389,0.0586 1.76389,0.0586 0,0 0.44097,-4.45381 5.02708,-4.45381 3.66007,0.0441 4.45382,4.23333 4.45382,4.23333 -0.0589,4.8803297 -0.0441,9.0399297 -0.0441,9.0399297 l -23.39587,0.13511 -1.65135,-1.59032 -40.18738,0.13794 -1.62913,1.5942 z" id="path6944" style="fill:#a626b9;stroke:#5eedd0;stroke-width:0.705556;stroke-linecap:round;stroke-linejoin:round;stroke-miterlimit:4;stroke-dasharray:none;stroke-opacity:1.0;fill-opacity:1.0"/>
</svg>
