<?xml version="1.0" encoding="UTF-8" standalone="no"?>
<svg
   xmlns:dc="http://purl.org/dc/elements/1.1/"
   xmlns:cc="http://creativecommons.org/ns#"
   xmlns:rdf="http://www.w3.org/1999/02/22-rdf-syntax-ns#"
   xmlns:svg="http://www.w3.org/2000/svg"
   xmlns="http://www.w3.org/2000/svg"
   width="186.54398mm"
   height="104.19679mm"
   viewBox="0 0 186.54398 104.19679"
   version="1.1"
   id="svg8">
<path d="M 186.18249,0.50854874 V 29.830738 l -32.62148,0.16404 c 0,0 -0.70268,-8.81945 -8.66664,-8.81945 -9.07521,0 -9.26042,8.71926 -9.26042,8.71926 l -7.54205,0.0123 c 0,0 -0.51451,-8.58732 -8.93297,-8.58732 -7.41685,0 -8.70405,8.68751 -8.70405,8.68751 h -8.29956 c 0,0 -0.5997,-8.62859 -8.950749,-8.62859 -8.41031,0 -8.54032,8.58731 -8.54032,8.58731 l -7.84209,0.0586 c 0,0 -0.64008,-8.62859 -8.71813,-8.62859 -8.45809,0 -9.36191,8.62859 -9.36191,8.62859 l -7.70319,0.0586 c 0,0 -0.23039,-8.62824 -8.5444,-8.62824 -8.44735,0 -9.03779,8.61131 -9.03779,8.61131 l -33.09525045,0.0586 0.0437,-29.53314926 28.93621045,0.0589 0.99901,7.64329006 c 0,0 2.64293,-4.3113 9.37191,-4.3113 7.4702,0 10.9273,4.71311 10.9273,4.71311 0,0 3.95123,-4.83094 10.92729,-4.83094 6.97642,0 10.46982,4.4196 10.46982,4.4196 0,0 3.77492,-4.47851 10.21202,-4.47851 7.45353,0 10.85802,4.84187 10.85802,4.84187 0,0 4.1583,-5.0105 10.949149,-5.0105 7.31573,0 10.89136,4.75791 10.89136,4.75791 0,0 4.48575,-4.72404 10.96804,-4.72404 6.60564,0 10.27313,4.90043 10.27313,4.90043 0,0 3.61268,-5.03484 10.00237,-5.03484 7.31572,0 10.96507,4.53425 10.96507,4.53425 l 0.88826,-7.70925006 z" id="path6252" style="fill:#197398;stroke:#8ad704;stroke-width:0.722979;stroke-linecap:round;stroke-linejoin:round;stroke-miterlimit:4;stroke-dasharray:none;stroke-opacity:1.0;fill-opacity:1.0"/>
</svg>
